<?xml version="1.0" encoding="UTF-8"?>
<svg id="Layer_1" data-name="Layer 1" xmlns="http://www.w3.org/2000/svg" viewBox="0 0 504 287.28">
  <defs>
    <style>
      .cls-1 {
        fill: #fefefe;
      }

      .cls-1, .cls-2, .cls-3, .cls-4, .cls-5, .cls-6, .cls-7, .cls-8, .cls-9, .cls-10, .cls-11, .cls-12, .cls-13 {
        stroke-width: 0px;
      }

      .cls-2 {
        fill: #f4f3f2;
      }

      .cls-3 {
        fill: #f3f2f0;
      }

      .cls-4 {
        fill: #fcfcfb;
      }

      .cls-5 {
        fill: #fbfbfa;
      }

      .cls-6 {
        fill: #fcfbfb;
      }

      .cls-7 {
        fill: #654713;
      }

      .cls-8 {
        fill: #644510;
      }

      .cls-9 {
        fill: #f9f8f7;
      }

      .cls-10 {
        fill: #64450f;
      }

      .cls-11 {
        fill: #fbfafa;
      }

      .cls-12 {
        fill: #fdfdfd;
      }

      .cls-13 {
        fill: #f8f7f7;
      }
    </style>
  </defs>
  <path class="cls-1" d="M0,185.84C0,123.9,0,61.95,0,0,109.44,0,218.88,0,328.32,0c-.2.08-.39.2-.59.24-6.11,1.18-10.49,4.43-11.99,10.65-1.15,4.81-.13,9.37,2.46,13.6,2.78,4.54,5.47,9.14,8.19,13.71.2.33.5.73.46,1.06-.24,1.65.72,3.48-.67,4.98-.11.12-.08.39-.08.58,0,2.52,0,5.03,0,7.55,0,.82.35,1.12,1.17,1.11,2.72-.03,5.44-.03,8.15,0,.91.01,1.32-.34,1.3-1.27-.03-1.24.1-2.49-.03-3.71-.18-1.7.76-3.59-.78-5.09-.08-.08,0-.31,0-.47-.23-2.52.08-4.89,1.78-6.94.55-.67.93-1.48,1.37-2.23,2.68-4.55,5.5-9.02,7.41-13.98,1.07-2.78,1.53-5.68.88-8.55-1.18-5.23-4.54-8.63-9.63-10.28-1.26-.41-2.57-.65-3.86-.97,56.72,0,113.44,0,170.16,0v202.15c-.18-.07-.38-.11-.54-.21-9.41-5.33-19.1-10.09-29.18-14.02-.98-.38-1.14-1.05-1.24-1.89-.11-.92.15-1.63,1.02-2.09,1.16-.61,2.29-1.28,3.44-1.92,2.97-1.66,2.98-1.67,1.8-4.91-.65-1.79-1.31-2.13-3.17-1.75-1.55.32-3.11.63-4.68.89-1.74.29-4.03-2.47-3.46-4.16.1-.29.29-.56.49-.8.77-.92,1.55-1.83,2.33-2.73,2.44-2.81,2.44-2.89-.04-5.72-1-1.13-1.62-1.25-2.91-.49-1.54.91-3.03,1.92-4.63,2.72-.58.29-1.62.38-2.06.05-1.03-.77-2.5-1.3-2.51-2.95,0-.3.14-.61.25-.91.4-1.08.79-2.16,1.23-3.22,1.4-3.37,1.41-3.48-1.93-5.34-1.34-.74-2.07-.62-3.01.54-.75.93-1.5,1.87-2.24,2.81-2.1,2.67-2.09,2.66-5.21,1.36-.94-.39-1.37-1.05-1.35-2.02.02-1.16.04-2.32.07-3.48.12-3.91.03-4.01-3.89-4.48-1.3-.15-1.95.22-2.39,1.42-.42,1.15-.8,2.32-1.2,3.48-1.12,3.28-1.12,3.26-4.56,3.07-.88-.05-1.42-.45-1.7-1.24-.42-1.16-.82-2.31-1.2-3.48-1.13-3.46-1.05-3.7-4.84-3-.08.01-.16,0-.24.02-1.23.23-1.86.95-1.87,2.23,0,1.28.02,2.56.04,3.84.06,3.18.05,3.14-2.89,4.26-1.02.39-1.78.18-2.43-.62-.76-.92-1.51-1.86-2.27-2.79q-2.48-3-5.79-.95c-1.1.68-1.37,1.4-.94,2.62.42,1.19.89,2.37,1.33,3.56,1.15,3.06,1.14,3.05-1.33,5.07-.78.64-1.58.7-2.42.2-1.09-.65-2.17-1.34-3.25-2.01q-2.99-1.86-5.23.88c-1.18,1.44-1.16,2.09.08,3.53.85.98,1.7,1.97,2.66,3.07-13.21-.99-26.19-.91-39.14.57q-.39-2.49-2.85-2.64s-.08,0-.12,0c-1.96-.15-3.06-1.79-2.45-3.67.1-.3.13-.64.28-.9.72-1.26.33-2.03-.88-2.79-2.87-1.8-1.79-1.88-4.59.19-.39.29-.91.67-1.32.62-1.4-.15-2.54-.62-3.13-2.19-.71-1.88-.86-1.82-2.75-1.57q-2.73.37-2.96,3.18c-.06.83-.44,1.35-1.1,1.94-1.24,1.09-2.37.64-3.48.11-1.26-.59-1.95-.28-2.71.86-1.92,2.89-1.88,1.89.12,4.57.99,1.33.56,3.31-.95,4.07-2.53,1.27-2.51,1.27-2.07,4.05.04.27-.27.78-.53.88-1.48.57-2.99,1.04-4.48,1.57-9.97,3.52-19.56,7.95-29.06,12.53-20.57,9.9-42.19,15.58-65.01,16.58-5.99.26-11.98.5-17.97.65-10.6.26-21.18-.08-31.73-1.08-5.83-.56-11.67-1.08-17.49-1.74-7.12-.81-14.23-1.74-21.34-2.61-7.2-.88-14.39-1.77-21.59-2.59-6.14-.7-12.3-1.21-18.42-2-6.43-.83-12.89-1.58-19.22-2.92-8.21-1.73-16.3-4.01-24.38-6.04-.26-2.98-.26-3.03-2.2-3.2-.71-.06-1.1-.22-1.44-.92-.37-.78.03-1.14.42-1.64,1.36-1.74,1.35-1.74-.25-3.35-1.74-1.74-1.73-1.73-3.81-.25-.32.23-.84.33-1.23.28-.63-.09-.85-.51-.99-1.23-.48-2.52.4-2.54-2.72-2.51-2.21.02-2.21,0-2.59,2.29-.29,1.74-1.18,2.06-2.58.95-.34-.27-.68-.57-1.05-.79-.21-.13-.62-.28-.73-.19-1.02.95-2.12,1.85-2.88,2.99-.2.29.72,1.33,1.13,2.03.04.07.12.12.14.19.09.28.16.57.24.85-.28.05-.56.16-.83.14-6.41-.39-12.83-1.11-19.24-1.11-6.73,0-13.47.66-20.21,1.04ZM47.75,39.52c7.25,2.55,12.14,3.66,19.02,4.4.35.04.83.44.96.78.85,2.11,1.59,4.26,2.41,6.38.64,1.66,1.42,2.15,3.17,2.15,5.44,0,10.88,0,16.31,0,1.85,0,2.57-.47,3.24-2.21.79-2.05,1.59-4.09,2.31-6.16.25-.71.61-.96,1.36-1.02,4.94-.44,9.84-1.16,14.5-2.96,2.92-1.13,5.46-2.78,7.39-5.31,1.72-2.25,1.65-4.84,1.56-7.44-.04-.99-.04-2.02-.34-2.94-.96-2.92-3.06-4.92-5.68-6.38-3.17-1.77-6.62-2.8-10.18-3.4-10.89-1.82-21.86-2.18-32.87-1.43-5.39.37-10.74,1.09-15.96,2.51-2.41.65-4.78,1.45-7.26,2.21-.55-1.12-1.13-2.25-1.67-3.4-.44-.93-1.09-1.38-2.17-1.35-2.04.06-4.08,0-6.12.02-2.01,0-2.54.97-1.57,2.78,1.22,2.27,2.42,4.55,3.63,6.82-1.55,1.63-2.82,3.29-2.81,5.6,0,2.35,1.41,3.99,2.79,5.6-1.28,2.4-2.54,4.71-3.77,7.04-.78,1.48-.22,2.4,1.47,2.42,2.2.02,4.4-.03,6.6.02.99.02,1.55-.41,1.95-1.26.53-1.15,1.12-2.27,1.72-3.46Z"/>
  <path class="cls-10" d="M0,185.84c6.74-.37,13.47-1.04,20.21-1.04,6.41,0,12.83.72,19.24,1.11.27.02.56-.09.83-.14-.08-.28-.15-.57-.24-.85-.02-.07-.1-.12-.14-.19-.41-.7-1.32-1.74-1.13-2.03.76-1.13,1.86-2.04,2.88-2.99.1-.09.51.06.73.19.37.23.7.52,1.05.79,1.4,1.11,2.29.78,2.58-.95.38-2.28.38-2.27,2.59-2.29,3.12-.03,2.24-.02,2.72,2.51.14.72.36,1.14.99,1.23.4.06.91-.05,1.23-.28,2.08-1.48,2.06-1.5,3.81.25,1.6,1.6,1.61,1.61.25,3.35-.39.5-.79.86-.42,1.64.33.7.73.86,1.44.92,1.95.17,1.94.21,2.2,3.2,8.08,2.03,16.17,4.31,24.38,6.04,6.33,1.34,12.79,2.09,19.22,2.92,6.12.79,12.28,1.3,18.42,2,7.2.82,14.4,1.71,21.59,2.59,7.11.87,14.22,1.81,21.34,2.61,5.82.66,11.66,1.19,17.49,1.74,10.55,1.01,21.14,1.34,31.73,1.08,5.99-.15,11.98-.39,17.97-.65,22.82-1,44.44-6.68,65.01-16.58,9.51-4.58,19.09-9.01,29.06-12.53,1.49-.53,3.01-1,4.48-1.57.26-.1.58-.61.53-.88-.44-2.78-.46-2.78,2.07-4.05,1.51-.76,1.94-2.74.95-4.07-2-2.68-2.03-1.68-.12-4.57.76-1.14,1.44-1.45,2.71-.86,1.11.52,2.25.97,3.48-.11.67-.59,1.04-1.11,1.1-1.94q.22-2.81,2.96-3.18c1.89-.25,2.04-.31,2.75,1.57.59,1.57,1.73,2.04,3.13,2.19.42.05.93-.33,1.32-.62,2.8-2.06,1.72-1.99,4.59-.19,1.21.76,1.6,1.52.88,2.79-.15.27-.18.6-.28.9-.61,1.88.49,3.52,2.45,3.67.04,0,.08,0,.12,0q2.46.15,2.85,2.64c12.95-1.48,25.93-1.56,39.14-.57-.96-1.1-1.81-2.09-2.66-3.07-1.24-1.44-1.26-2.09-.08-3.53q2.25-2.74,5.23-.88c1.08.67,2.16,1.36,3.25,2.01.84.5,1.63.44,2.42-.2,2.47-2.03,2.48-2.02,1.33-5.07-.45-1.19-.91-2.36-1.33-3.56-.43-1.23-.16-1.94.94-2.62q3.31-2.05,5.79.95c.76.92,1.51,1.86,2.27,2.79.66.8,1.41,1.01,2.43.62,2.94-1.12,2.95-1.09,2.89-4.26-.02-1.28-.05-2.56-.04-3.84,0-1.27.64-2,1.87-2.23.08-.01.16,0,.24-.02,3.79-.7,3.71-.46,4.84,3,.38,1.17.79,2.33,1.2,3.48.28.79.83,1.19,1.7,1.24,3.44.19,3.44.2,4.56-3.07.4-1.16.78-2.33,1.2-3.48.44-1.2,1.09-1.58,2.39-1.42,3.92.46,4,.57,3.89,4.48-.03,1.16-.06,2.32-.07,3.48-.01.98.41,1.63,1.35,2.02,3.11,1.29,3.11,1.31,5.21-1.36.74-.94,1.48-1.88,2.24-2.81.94-1.16,1.67-1.29,3.01-.54,3.34,1.86,3.33,1.97,1.93,5.34-.44,1.06-.83,2.14-1.23,3.22-.11.3-.26.61-.25.91.01,1.65,1.48,2.19,2.51,2.95.44.33,1.49.24,2.06-.05,1.6-.8,3.09-1.81,4.63-2.72,1.29-.76,1.92-.64,2.91.49,2.49,2.82,2.48,2.9.04,5.72-.79.91-1.57,1.81-2.33,2.73-.2.24-.39.51-.49.8-.57,1.68,1.72,4.45,3.46,4.16,1.56-.26,3.12-.57,4.68-.89,1.87-.39,2.52-.04,3.17,1.75,1.18,3.24,1.18,3.25-1.8,4.91-1.15.64-2.28,1.3-3.44,1.92-.87.46-1.13,1.17-1.02,2.09.1.84.26,1.51,1.24,1.89,10.08,3.93,19.77,8.69,29.18,14.02.17.09.36.14.54.21v84.89H0C0,253.31,0,219.57,0,185.84ZM466.56,184.86c-.02-.25,0-.37-.04-.48-5.15-16.69-22.25-26.33-39.05-22.02-2.57.66-3.66,3.06-2.39,5.38,1.1,2.02,2.24,4.03,3.43,6,.23.38.74.7,1.18.82,8.01,2.06,16.06,3.99,24.04,6.15,4.3,1.17,8.49,2.73,12.82,4.15ZM353.06,172.6c-1.13-3.58-4.26-5.25-7.45-4.1-2.75,1-4.45,4.07-3.5,6.4,3.62-.76,7.25-1.52,10.95-2.3ZM419.44,172.72c-.74-1.59-1.46-2.92-3.24-3.2-1.86-.28-3.07.67-4.14,2.13,2.44.35,4.78.69,7.38,1.06ZM52.28,188.08c-1.4-2.6-4.57-3.17-6.2-1.19,2.04.39,4.04.77,6.2,1.19Z"/>
  <path class="cls-7" d="M333.84,0c1.29.32,2.6.56,3.86.97,5.1,1.64,8.45,5.05,9.63,10.28.65,2.87.19,5.77-.88,8.55-1.91,4.96-4.73,9.43-7.41,13.98-.44.75-.82,1.57-1.37,2.23-1.7,2.05-2.01,4.41-1.78,6.94.01.16-.07.39,0,.47,1.54,1.5.6,3.39.78,5.09.13,1.22,0,2.47.03,3.71.02.92-.39,1.28-1.3,1.27-2.72-.03-5.44-.03-8.15,0-.82,0-1.17-.29-1.17-1.11.01-2.52,0-5.03,0-7.55,0-.2-.03-.46.08-.58,1.39-1.5.43-3.32.67-4.98.05-.33-.26-.72-.46-1.06-2.72-4.58-5.41-9.17-8.19-13.71-2.59-4.23-3.62-8.79-2.46-13.6,1.49-6.23,5.88-9.47,11.99-10.65.21-.04.4-.16.59-.24,1.84,0,3.68,0,5.52,0ZM339.72,3.19c-.1-.02-.19-.04-.29-.05.05.08.1.15.15.23.14.11.29.22.43.33.04-.05.08-.1.12-.15-.14-.12-.27-.24-.41-.36ZM329.24,1.4c-1.97.91-3.33,2.45-4.25,4.35-2.19,4.52-2.07,9.3-1.07,14.02.83,3.9,2.16,7.69,3.18,11.55.32,1.22.93,1.52,1.83,1.2-.4-6.08-.91-12.07-1.15-18.07-.17-4.37-.17-8.77,1.56-12.93.04-.08.07-.16.11-.25-.07.04-.15.09-.22.13ZM333.42,1.2c.45,1.61,1.08,3.2,1.34,4.84,1.03,6.49.37,12.97-.35,19.44-.26,2.32-.53,4.65-.81,7.02,1.07.21,1.8.16,2.03-1.13.19-1.08.66-2.11.97-3.17,1.48-5.04,3.05-10.06,2.75-15.41-.17-3.04-.72-6-2.38-8.64-.89-1.41-2.03-2.5-3.55-2.95ZM337.65,32.5c.1.05.2.11.31.16.57-.88,1.17-1.75,1.71-2.65,2.86-4.82,5.33-9.77,5.54-15.54.12-3.21-.62-6.16-2.68-8.69-.63-.77-1.4-1.42-2.21-2.23-.08.35-.13.43-.11.49.08.18.16.36.27.53,1.59,2.31,2.19,4.9,2.24,7.67.1,5.39-1.47,10.44-3.21,15.44-.57,1.63-1.24,3.21-1.86,4.82ZM323.38,3.16c-.25,0-.34-.03-.39,0-.17.11-.33.23-.48.35-4.05,3.29-5.01,7.7-4.4,12.59.73,5.88,3.4,11.03,6.37,16.04.1.17.3.29.45.43-.22-1.04-.6-1.98-1.03-2.9-2.1-4.56-4.14-9.12-4.32-14.26-.14-3.91.48-7.61,2.77-10.9.3-.44.64-.85,1.03-1.36ZM327.74,43.59h7.25v-4.45h-7.25v4.45Z"/>
  <path class="cls-1" d="M0,287.04h504c-.04.08-.08.23-.12.23-.32.02-.64.01-.96.01-167.28,0-334.56,0-501.84,0-.36,0-.72-.15-1.08-.23Z"/>
  <path class="cls-8" d="M47.75,39.52c-.6,1.19-1.19,2.31-1.72,3.46-.39.85-.96,1.29-1.95,1.26-2.2-.05-4.4,0-6.6-.02-1.7-.02-2.25-.94-1.47-2.42,1.23-2.33,2.48-4.64,3.77-7.04-1.39-1.61-2.79-3.25-2.79-5.6,0-2.31,1.27-3.96,2.81-5.6-1.2-2.27-2.41-4.55-3.63-6.82-.97-1.81-.44-2.77,1.57-2.78,2.04,0,4.08.04,6.12-.02,1.07-.03,1.73.42,2.17,1.35.54,1.15,1.12,2.28,1.67,3.4,2.47-.76,4.85-1.56,7.26-2.21,5.23-1.41,10.58-2.14,15.96-2.51,11-.75,21.97-.4,32.87,1.43,3.56.59,7,1.63,10.18,3.4,2.62,1.46,4.72,3.46,5.68,6.38.3.92.31,1.95.34,2.94.1,2.6.17,5.18-1.56,7.44-1.94,2.53-4.47,4.18-7.39,5.31-4.67,1.8-9.56,2.52-14.5,2.96-.75.07-1.11.31-1.36,1.02-.72,2.07-1.52,4.12-2.31,6.16-.67,1.73-1.39,2.21-3.24,2.21-5.44,0-10.88,0-16.31,0-1.75,0-2.53-.49-3.17-2.15-.82-2.12-1.57-4.27-2.41-6.38-.14-.34-.61-.74-.96-.78-6.88-.74-11.77-1.85-19.02-4.4ZM77.08,45.85c-1.74,0-1.98.19-1.98,1.58,0,1.36.26,1.57,1.87,1.58,1.66,0,1.9-.19,1.91-1.53.01-1.41-.22-1.63-1.8-1.63ZM85.94,49.01c1.7,0,1.9-.18,1.88-1.66-.01-1.36-.22-1.51-2.04-1.5-1.48,0-1.73.24-1.72,1.6,0,1.36.26,1.57,1.88,1.57Z"/>
  <path class="cls-12" d="M466.56,184.86c-4.34-1.42-8.53-2.98-12.82-4.15-7.98-2.17-16.03-4.09-24.04-6.15-.44-.11-.95-.44-1.18-.82-1.19-1.97-2.33-3.98-3.43-6-1.27-2.32-.18-4.72,2.39-5.38,16.8-4.32,33.91,5.32,39.05,22.02.03.11.02.23.04.48Z"/>
  <path class="cls-4" d="M353.06,172.6c-3.71.78-7.33,1.54-10.95,2.3-.95-2.32.75-5.4,3.5-6.4,3.2-1.16,6.33.52,7.45,4.1Z"/>
  <path class="cls-11" d="M419.44,172.72c-2.6-.37-4.94-.71-7.38-1.06,1.07-1.46,2.28-2.42,4.14-2.13,1.78.27,2.5,1.61,3.24,3.2Z"/>
  <path class="cls-9" d="M52.28,188.08c-2.16-.41-4.16-.8-6.2-1.19,1.63-1.99,4.8-1.42,6.2,1.19Z"/>
  <path class="cls-5" d="M329.36,1.52c-1.73,4.16-1.74,8.57-1.56,12.93.24,6,.75,11.99,1.15,18.07-.91.31-1.51.02-1.83-1.2-1.02-3.86-2.35-7.65-3.18-11.55-1-4.72-1.12-9.5,1.07-14.02.92-1.89,2.28-3.44,4.25-4.35.04.04.08.08.11.12Z"/>
  <path class="cls-6" d="M333.42,1.2c1.52.45,2.66,1.55,3.55,2.95,1.67,2.64,2.21,5.59,2.38,8.64.3,5.35-1.27,10.37-2.75,15.41-.31,1.06-.78,2.09-.97,3.17-.23,1.28-.95,1.33-2.03,1.13.27-2.37.55-4.7.81-7.02.72-6.47,1.38-12.95.35-19.44-.26-1.64-.88-3.23-1.34-4.84Z"/>
  <path class="cls-11" d="M337.65,32.5c.62-1.61,1.29-3.19,1.86-4.82,1.74-5,3.32-10.05,3.21-15.44-.05-2.76-.65-5.36-2.24-7.67-.11-.16-.2-.34-.27-.53-.02-.05.03-.13.11-.49.81.81,1.59,1.46,2.21,2.23,2.06,2.53,2.8,5.48,2.68,8.69-.21,5.76-2.69,10.72-5.54,15.54-.54.9-1.14,1.77-1.71,2.65-.1-.05-.2-.11-.31-.16Z"/>
  <path class="cls-13" d="M323.38,3.16c-.39.51-.73.92-1.03,1.36-2.29,3.29-2.91,6.98-2.77,10.9.19,5.14,2.23,9.71,4.32,14.26.42.92.8,1.85,1.03,2.9-.15-.14-.35-.26-.45-.43-2.97-5.01-5.64-10.16-6.37-16.04-.61-4.88.35-9.3,4.4-12.59.15-.13.31-.25.48-.35.05-.03.14,0,.39,0Z"/>
  <path class="cls-4" d="M327.74,43.59v-4.45h7.25v4.45h-7.25Z"/>
  <path class="cls-11" d="M339.72,3.19c.14.12.27.24.41.36-.04.05-.08.1-.12.15-.14-.11-.29-.22-.43-.33.05-.05.1-.11.14-.18Z"/>
  <path class="cls-5" d="M329.24,1.4c.07-.04.15-.09.22-.13-.04.08-.07.16-.11.25-.04-.04-.07-.08-.11-.12Z"/>
  <path class="cls-11" d="M339.58,3.37c-.05-.08-.1-.15-.15-.23.1.02.19.04.29.05-.04.06-.08.12-.14.18Z"/>
  <path class="cls-2" d="M77.08,45.85c1.58,0,1.82.22,1.8,1.63-.01,1.34-.25,1.53-1.91,1.53-1.61,0-1.87-.22-1.87-1.58,0-1.39.24-1.59,1.98-1.58Z"/>
  <path class="cls-3" d="M85.94,49.01c-1.62,0-1.87-.21-1.88-1.57,0-1.36.25-1.59,1.72-1.6,1.82,0,2.02.14,2.04,1.5.01,1.48-.19,1.66-1.88,1.66Z"/>
</svg>