<?xml version="1.0" encoding="UTF-8"?>
<svg id="Layer_1" data-name="Layer 1" xmlns="http://www.w3.org/2000/svg" viewBox="0 0 503.69 335.04">
  <defs>
    <style>
      .cls-1 {
        fill: #ae7f1a;
      }

      .cls-1, .cls-2, .cls-3 {
        stroke-width: 0px;
      }

      .cls-2 {
        fill: #a87e24;
      }

      .cls-3 {
        fill: #ab7e1f;
      }
    </style>
  </defs>
  <path class="cls-1" d="M503.69,335.04H0v-161.05c3.37-.76,6.76-1.56,10.16-2.27,7.03-1.45,14.06-2.92,21.11-4.23,5.54-1.03,11.12-1.87,16.69-2.73,4.36-.67,8.73-1.3,13.1-1.85,2.8-.35,5.63-.54,8.44-.8,3.54-.32,7.08-.73,10.62-.92,3.78-.2,7.56-.25,11.35-.26,3.7,0,7.41.13,11.11.23.98.03,1.96.19,3.06.31.02-2.81,1.07-4.94,3.63-6.13,2.58-1.21,4.88.09,7.23.87,1.45-2.48,2.86-4.91,4.32-7.42-.71-.61-1.47-1.25-2.22-1.89-1.61-1.38-2.58-3.14-2.26-5.23.39-2.52,1.84-4.41,4.45-5.07,1.97-.5,3.79-.08,5.37,1.25.76.64,1.52,1.28,2.27,1.92,2.18-1.84,4.34-3.66,6.53-5.51-.67-1.32-1.44-2.66-2.05-4.07-1.18-2.76,1.2-6.9,4.66-7.38,2.69-.37,4.77.61,6.18,2.93.51.84.99,1.71,1.52,2.62,1.38-.54,2.69-1.08,4.02-1.57,1.3-.48,2.63-.89,4.04-1.37-.17-.97-.32-1.94-.52-2.89-.74-3.63,1.94-6.77,5.63-6.97,3-.16,5.73,1.79,6.26,5.99.08.63.2,1.25.28,1.73,1.53,0,2.98-.03,4.43,0,1.02.03,2.05.14,3.07.23.63.06,1.09-.05,1.19-.81.09-.75.24-1.49.41-2.23.85-3.77,3.3-5.39,7.37-4.84,2.86.38,4.9,3.89,4.25,7.02-.18.89-.31,1.79-.46,2.7,2.67.97,5.3,1.94,8.06,2.94.53-.89,1.07-1.85,1.66-2.78,1.42-2.22,3.5-3.12,6.05-2.7,2.31.39,3.92,1.8,4.55,4.07.42,1.5.39,3.08-.42,4.52-.52.93-1.06,1.86-1.6,2.8,2.19,1.85,4.34,3.67,6.58,5.56.72-.6,1.5-1.26,2.29-1.92,3.29-2.74,8.21-1.46,9.4,2.62.77,2.65.32,4.45-1.67,6.29-.79.72-1.63,1.39-2.41,2.04,1.44,2.48,2.84,4.88,4.31,7.41.82-.28,1.7-.58,2.59-.89,3.37-1.19,6.68.25,7.85,3.42,1.15,3.1-.41,6.34-3.66,7.64-.91.36-2.18.53-2.58,1.21-.37.62.23,1.8.39,2.73.16.9.32,1.8.47,2.7.15.9.28,1.8.41,2.67,1.54.11,3.03.05,4.46.36,3.08.65,4.61,2.98,4.47,6.51-.09,2.39-2.3,4.62-5.01,4.99-1.25.17-2.52.23-3.91.36-.21,1.26-.41,2.62-.65,3.97-.2,1.09-.38,2.19-.67,3.26-.2.75,0,1.08.72,1.29.76.22,1.51.51,2.23.82,2.11.91,3.39,2.54,3.65,4.8.27,2.32-.67,4.2-2.59,5.56-.16.11-.32.23-.66.48,3.7,1.01,7.23,2.11,10.82,2.91,8.28,1.84,16.57,3.67,24.91,5.24,5.26.99,10.61,1.59,15.94,2.23,4.21.51,8.44.86,12.68,1.19,3.16.25,6.33.39,9.51.48,4.62.13,9.25.29,13.87.21,4.44-.08,8.88-.3,13.3-.73,5.93-.57,11.86-1.27,17.75-2.16,5.88-.89,11.72-2.09,17.57-3.15,5.19-.94,10.38-1.9,15.59-2.79,6.22-1.06,12.46-2.03,18.68-3.1,5.91-1.01,11.82-2.01,17.69-3.17,7.43-1.46,14.82-3.11,22.24-4.62,8.7-1.77,17.4-3.57,26.13-5.19,4.8-.89,9.64-1.54,14.49-2.11,3.58-.42,7.2-.58,10.8-.77,4.05-.21,8.11-.33,12.16-.49v142.94ZM191.88,187.82c-.23.75-.45,1.5-.7,2.31,6.62,4.04,13.26,8.06,20.45,11.31.61-1.53,1.31-2.92,1.71-4.4.82-3.05,1.48-6.15,2.21-9.22-.31-.09-.63-.26-.94-.26-7.26-.01-14.51-.01-21.77,0-.32,0-.64.17-.96.26ZM215.57,175.75c-.31-1.64-.56-3.29-.95-4.91-5.08-21.11-23.62-35.51-44.84-35.75-3.69-.04-7.43.58-11.09,1.22-2.53.45-4.97,1.46-7.53,2.25,3.92,6.8,7.71,13.34,11.45,19.9.41.72.89.5,1.48.47,3.01-.15,6.07-.59,9.04-.26,4.44.5,8.35,2.54,11.68,5.56,3.48,3.15,5.94,6.93,7.03,11.54.41.09.81.26,1.22.26,7.1.02,14.2.02,21.29,0,.4,0,.81-.18,1.21-.27ZM148.99,169.78c1.05-1.34,2.21-2.75,3.29-4.22.21-.28.3-.9.14-1.18-3.75-6.56-7.53-13.09-11.37-19.74-6.72,5.2-11.74,11.64-14.93,19.33,7.65,1.94,15.23,3.87,22.87,5.81ZM180.76,183.58c.41-6.68-2.72-11.63-8.41-13.05-4.64-1.16-9.63.42-11.51,3.48,6.62,3.18,13.25,6.37,19.91,9.57Z"/>
  <path class="cls-3" d="M162.09,0c.62.22,1.24.44,1.86.67,4.24,1.63,6.51,5.9,4.92,10.13-1.21,3.2-3.06,6.17-4.64,9.23-.36.7-.81,1.37-1.24,2.03-.89,1.37-.67,2.72-.34,4.26.36,1.64.13,3.4.08,5.11,0,.16-.54.43-.84.43-1.56.04-3.12.07-4.67-.02-.31-.02-.86-.55-.84-.81.14-1.79-.33-3.58.35-5.4.39-1.05.27-2.39-.48-3.55-1.57-2.44-2.93-5.01-4.53-7.42-1.68-2.53-1.98-5.33-1.55-8.13.47-3.01,2.53-4.96,5.36-6.05.43-.17.85-.33,1.28-.5,1.76,0,3.52,0,5.28,0ZM154.42,2.17c.06-.07.13-.14.19-.21-.11.02-.22.04-.32.06-.08.07-.16.13-.25.2-2.22,1.95-2.78,4.47-2.42,7.25.43,3.37,1.92,6.35,3.61,9.24.11.2.29.36.43.54-.54-1.55-1.25-3.01-1.84-4.5-1.66-4.16-2.15-8.3.38-12.34.08-.08.15-.17.23-.25ZM165.11,2.27c-.17-.12-.34-.23-.5-.35-.03.04-.06.09-.09.13.15.12.29.24.44.36,1.79,2.69,1.78,5.65,1.05,8.6-.68,2.78-1.61,5.49-2.44,8.27,2.1-3.09,3.88-6.33,4.26-10.13.27-2.71-.46-5.12-2.71-6.88ZM158.27.97c-.61.43-1.39.75-1.79,1.33-1.61,2.34-2.06,4.92-1.63,7.78.49,3.24,1.47,6.29,2.64,9.67.34-.51.7-.8.68-1.06-.19-2.5-.38-5-.68-7.49-.41-3.47-.3-6.88.76-10.24.05-.04.1-.09.14-.13-.05,0-.1-.02-.15-.02,0,.06.02.11.03.17ZM161.2,19.55c.32-.4.79-.75.94-1.21.65-2.07,1.37-4.14,1.78-6.27.58-3.02.73-6.09-.63-9-.51-1.09-1.23-1.99-2.37-2.35,1.95,6.22.59,12.44.29,18.83ZM161.64,23.36h-4.27v2.71h4.27v-2.71Z"/>
  <path class="cls-3" d="M404.94,106.72c-3.2,0-3.25,0-3.18-3.21.03-1.56.35-3.1.43-4.66.03-.55-.17-1.18-.45-1.67-1.5-2.58-2.99-5.16-4.6-7.67-1.8-2.8-2.13-5.84-1.36-8.93.84-3.32,4.39-5.84,7.83-5.74,1.89.05,3.87.09,5.64.67,4.37,1.44,6.57,5.84,5.01,10.15-1.01,2.78-2.57,5.36-3.93,8-.53,1.02-1.16,2-1.79,2.96-.97,1.46-.91,2.89-.47,4.59.41,1.57.13,3.33.07,5,0,.18-.51.46-.81.48-.79.07-1.6.02-2.4.02ZM399.83,77c.06-.07.13-.14.19-.21-.11.02-.22.04-.32.06-.08.07-.16.13-.25.2-2.22,1.95-2.78,4.47-2.42,7.25.43,3.37,1.92,6.35,3.61,9.24.11.2.29.36.43.54-.54-1.55-1.25-3.01-1.84-4.5-1.66-4.16-2.15-8.3.37-12.34.08-.08.15-.17.23-.25ZM410.51,77.09c-.17-.12-.34-.23-.5-.35-.03.04-.06.09-.09.13.15.12.29.24.44.36,1.79,2.69,1.78,5.65,1.05,8.6-.68,2.78-1.61,5.49-2.37,8.02,1.64-1.62,4.05-7.16,4.21-9.88.15-2.72-.48-5.12-2.73-6.89ZM403.67,75.8c-.61.43-1.39.75-1.79,1.33-1.61,2.34-2.06,4.92-1.63,7.78.49,3.24,1.47,6.29,2.64,9.67.34-.51.7-.8.68-1.06-.19-2.5-.38-5-.68-7.49-.41-3.47-.3-6.88.76-10.24.05-.04.1-.09.14-.13-.05,0-.1-.02-.15-.02,0,.06.02.11.03.17ZM406.29,75.52c2.01,6.24.59,12.47.23,18.78.45-.35.9-.72,1.06-1.19.56-1.69,1.09-3.39,1.51-5.12.73-2.97.93-5.97.06-8.95-.46-1.55-1.24-2.91-2.86-3.52ZM402.8,98.13v2.77h4.22v-2.77h-4.22Z"/>
  <path class="cls-2" d="M268.36,132.61h-2.88c0-.99.08-1.98-.03-2.94-.08-.76-.29-1.54-.62-2.22-.53-1.1-1.28-2.1-1.82-3.21-1.06-2.19-.3-4.56,1.7-5.52,2.24-1.08,5.24-.36,6.1,1.74.4.98.32,2.34.02,3.4-.35,1.22-1.12,2.35-1.81,3.45-.62,1.01-1.11,1.95-.7,3.21.2.6.03,1.33.03,2.09ZM263.76,124.03c.11.37.22.74.32,1.1.07-.02.14-.04.21-.06l-.35-1.18v-3.99c-.81,1.18-.88,2.62-.18,4.13ZM265.91,119.14c-1.83,1.07-1.2,5.61.2,7.75,0-2.52,0-5.05,0-7.58,0-.1.02-.2.02-.3-.07.04-.15.09-.22.13ZM267.76,119.01v7.83c1.38-2.34,1.92-7.01,0-7.83ZM269.13,126.04c1.71-2.53,1.87-4.73.44-6.3,1.08,2.2.02,4.22-.44,6.3ZM266.03,128.84v1.08h1.84c-.04-.41-.07-.74-.11-1.08h-1.74Z"/>
</svg>