<?xml version="1.0" encoding="UTF-8"?>
<svg id="Layer_1" data-name="Layer 1" xmlns="http://www.w3.org/2000/svg" viewBox="0 0 504 327.01">
  <defs>
    <style>
      .cls-1 {
        fill: #2c1d16;
      }

      .cls-1, .cls-2 {
        stroke-width: 0px;
      }

      .cls-2 {
        fill: #23120b;
      }
    </style>
  </defs>
  <path class="cls-2" d="M0,296.79c11.37-6.09,23.22-11.02,35.52-14.87.46-.14.81-.61,1.23-.91.47-.34.91-.76,1.44-.95,1.23-.44,2.49-.79,3.76-1.12,1.53-.39,1.39-1.61,1.5-2.76.11-1.09-.5-1.46-1.39-1.74-1.17-.37-2.33-.79-3.47-1.24-.83-.33-1.31-.88-.95-1.87.16-.44.22-.92.35-1.38.28-1.01.91-1.54,2.01-1.47,1.36.09,2.71.14,4.07.24,1.66.12,1.81-1.29,2.34-2.29.49-.91-.07-1.48-.72-2.02-.89-.74-1.77-1.5-2.66-2.24-.74-.62-.81-1.33-.3-2.11.28-.43.61-.84.9-1.27.63-.97,1.45-1.12,2.48-.69,1.13.48,2.32.84,3.43,1.35,1.49.68,2.16-.42,3.01-1.23.78-.75.68-1.51.19-2.36-.57-1-1.07-2.04-1.63-3.05-.47-.85-.27-1.52.47-2.08.25-.19.52-.38.78-.56,1.8-1.28,1.98-1.27,3.56.21.73.68,1.49,1.33,2.2,2.03.64.63,1.31.66,2.06.27.35-.18.71-.36,1.07-.52.94-.42,1.27-1.1,1.09-2.12-.19-1.06-.31-2.13-.4-3.2-.14-1.5.14-1.89,1.57-2.35.19-.06.37-.15.56-.21,1.93-.61,2.22-.48,3.13,1.39.41.86.85,1.7,1.22,2.58.37.87,1.01,1.23,1.9,1.03,2.35-.52,2.3.28,3.03-2.54.26-1,.54-1.99.77-3,.2-.88.81-1.23,1.62-1.33.24-.03.48,0,.72.01,2.53.1,2.65.23,2.73,2.79.03.96.13,1.91.24,2.86.03.26.14.55.31.74.92,1.02,3.32.87,4.11-.25.78-1.11,1.56-2.22,2.31-3.35.55-.83,1.28-1.01,2.17-.7.26.09.52.2.78.3,1.8.7,1.93.96,1.37,2.84-.29.99-.59,1.98-.88,2.96-.23.77-.31,1.55.54,1.98.96.48,1.8,1.61,3.09.55,1.08-.89,2.23-1.68,3.36-2.5,1.28-.92,1.83-.73,3.51.96.87.87.51,1.63-.09,2.42-.72.95-1.41,1.93-2.14,2.88-.54.71-.73,1.41-.1,2.16.69.83,1.19,1.95,2.67,1.35,1.32-.53,2.72-.86,4.06-1.34.99-.35,1.61-.01,2.04.87.18.36.35.72.53,1.07.49.93.3,1.67-.58,2.26-1.15.78-2.26,1.64-3.44,2.39-1.2.76-.75,1.74-.53,2.75.22.99.79,1.4,1.77,1.4,1.24,0,2.48,0,3.72.03,1.65.04,1.8.19,2.04,1.83.05.35.08.7.11,1.01h8.98c.35-.89.03-1.31-.69-1.55-.41-.13-.82-.32-1.24-.4-.95-.19-1.21-.74-1.06-1.64.15-.89.62-1.22,1.5-1.11.47.06.96-.02,1.44.02.7.06.94-.31,1.19-.9.27-.65.13-1.05-.4-1.43-.36-.26-.67-.57-1.03-.82-.72-.5-1-.99-.46-1.88.53-.87,1.09-.89,1.89-.53.47.21.97.49,1.45.49.43,0,.96-.25,1.25-.56.22-.24.27-.79.17-1.14-.14-.48-.45-.93-.78-1.33-.73-.89-.37-1.47.41-2.07.55-.43.97-.44,1.46.03.41.38.8.83,1.28,1.08.39.2,1.02.34,1.34.16.38-.21.68-.78.76-1.24.08-.48-.08-1.03-.23-1.52-.27-.86-.01-1.28.86-1.6.88-.33,1.35-.14,1.73.64.22.46.42.98.77,1.34.27.28.8.57,1.13.5.44-.1.96-.47,1.17-.87.26-.5.3-1.15.34-1.74.06-1.08.79-.99,1.54-1.01.84-.02,1.11.43,1.15,1.19.02.47.06.98.25,1.4.18.39.51.82.89,1,.57.27,1.17.19,1.48-.53.17-.4.45-.75.62-1.15.39-.91.92-1.11,1.89-.75,1.03.39.83,1.01.75,1.81-.08.86-1.04,1.99.46,2.53.39.14.95.05,1.36-.13.42-.18.77-.56,1.1-.91.58-.61,1.1-.77,1.84-.15.73.61.85,1.18.31,1.94-.28.39-.63.78-.72,1.22-.09.46-.05,1.1.21,1.44.23.3.85.37,1.31.4.28.02.58-.22.88-.33.85-.32,1.62-.79,2.31.43.68,1.19-.17,1.53-.81,2.1-.61.55-1.68.93-1.04,2.06.2.36.67.67,1.08.79.44.13.96.1,1.43.01,1.14-.21,1.44.45,1.6,1.38.17.96-.46,1.14-1.14,1.35-.44.14-.87.33-1.28.71,1.77-.18,3.55-.31,5.31-.56,7.8-1.1,15.52-2.66,22.9-5.44,6.42-2.42,12.68-5.25,19.05-7.79,3.79-1.51,7.65-2.84,11.51-4.16.67-.23.86-.48.9-1.13.52-8.33,1.04-16.67,1.63-25,.63-8.77,1.37-17.53,1.99-26.29.42-5.9.69-11.81,1.09-17.71.6-8.81,1.25-17.61,1.87-26.42.12-1.67.2-3.35.25-5.03.01-.38-.02-.86-.23-1.15-.7-.97-.56-2.02-.51-3.1.64-13.09,1.25-26.19,1.9-39.28.04-.87-.03-1.44-1.09-1.3-.11.02-.33-.03-.34-.05-.08-1.07-.19-2.14-.15-3.2,0-.21.59-.46.94-.58.28-.09.62-.02,1.06-.02-.43-2.09.81-2.66,2.48-3.17,2.72-.83,2.38-.15,2.5-3.29.05-1.4.11-2.8.21-4.19.13-1.73.36-3.47-1.67-4.59,7.77-5.06,12.28-12.46,16.67-20.33-1.57-.08-1.61-.88-1.53-1.84.14-1.65.2-3.32.53-5.06.11.19.31.37.32.56.02.44-.05.88-.08,1.31-.11,1.59.5,2.13,2.06,1.73.23-.06.5-.49.52-.77.23-3.71.46-7.42.57-11.13.02-.57-.53-1.21-.93-1.73-.41-.53-.49-.91-.01-1.45,5.21-5.81,8.56-12.71,11.62-19.79,2.33-5.38,3.79-10.97,4.6-16.76.12-.87-.04-1.45-.62-2.02-.25-.24-.44-.55-.78-.99,1.51-.54,2.29-1.38,2.18-3.11-.15-2.41.02-2.42-1.32-3.86,1.1-.55,2-1.28,1.89-2.74.7,1.17,1.26,2.12,1.88,3.16-2.18,1.06-1.06,3.35-1.52,5.14-.04.14.37.45.62.6.46.29.95.53,1.4.77-.05.22-.03.33-.08.36-2.11,1.65-1.52,3.87-1.35,6.05.46,5.83,1.74,11.49,3.43,17.06,1.71,5.61,3.94,11.02,6.68,16.21.5.95,1.09,1.86,1.75,2.7.56.7.59,1.14-.09,1.8-.42.42-.72,1.13-.76,1.74-.2,2.95-.31,5.91-.43,8.86-.07,1.59-.06,1.59,1.59,1.62.27,0,.55,0,.91,0,.11-1.09.22-2.11.32-3.14.15.01.3.02.46.03.04.28.12.57.11.85-.05,1.6-.18,3.19-.18,4.79,0,1.02-.32,1.54-1.65,1.17,2.86,9.98,7,18.97,14.75,25.96-2.45,1.08-2.35,3.15-2.35,5.18,0,.48-.03.96-.04,1.44-.06,1.57.12,1.77,1.74,1.84.72.03,1.44.04,2.16.04.8,0,1.23.3,1.01,1.17-.29,1.1.12,1.53,1.24,1.29.11-.02.32-.05.35,0,.23.4.69.9.59,1.2-.31.86.73,2.46-.88,2.5-1.43.04-1.53.61-1.56,1.71-.19,9.47-.41,18.93-.63,28.4-.12,5.27-.24,10.55-.42,15.82-.02.48-.31,1.16-.69,1.39-.97.59-1.2,1.44-1.22,2.42-.1,5.79-.17,11.58-.27,17.38-.17,10.47-.34,20.93-.52,31.4-.17,9.59-.36,19.18-.55,28.76-.13,6.59-.26,13.18-.45,19.77-.03,1.04.31,1.42,1.31,1.8,17.34,6.59,34.66,13.25,51.99,19.89,5.63,2.16,11.26,4.29,16.89,6.43.36.14.74.25,1.12.38.17-3.68,3.08-5.6,6.91-3.99.93.39,1.26.22,1.67-.62.73-1.49,1.61-2.9,2.47-4.44-.53-.48-1.16-1.02-1.77-1.58-1.85-1.73-2.05-4.24-.48-6.07,1.55-1.82,4.28-2.04,6.23-.5.56.44,1.1.92,1.65,1.38,1.58-1.34,3.14-2.67,4.71-4-.48-.96-1.06-1.88-1.4-2.88-.73-2.16.26-4.41,2.22-5.3,2.17-.98,4.45-.26,5.68,1.8.36.61.73,1.23,1.09,1.84,1.99-.73,3.91-1.44,5.89-2.16-.1-.7-.17-1.41-.3-2.1-.47-2.52.95-4.65,3.47-5.19,2.26-.48,4.45.98,5.01,3.36.19.8.32,1.62.46,2.29,1.88,0,3.63-.1,5.37.04.92.08,1.08-.2,1.14-.99.17-2.21,1-3.99,3.32-4.71,2.97-.92,6.05,1.8,5.47,4.84-.14.74-.27,1.48-.4,2.23,1.99.7,3.95,1.39,6,2.11.36-.6.75-1.24,1.14-1.88,1.34-2.21,3.85-2.87,6.08-1.61,1.94,1.1,2.6,3.84,1.41,5.99-.34.62-.71,1.22-1.05,1.81,1.67,1.37,3.26,2.68,4.92,4.05,1.42-1.2,2.79-2.77,4.98-2.49,1.26.16,2.34.77,3.06,1.89,1.23,1.91,1.62,4.28-2.44,7.18,1.05,1.79,2.11,3.58,3.23,5.47.72-.24,1.52-.53,2.34-.78,2.23-.67,4.69.45,5.34,2.42.82,2.46-.26,4.89-2.57,5.78-.69.27-1.39.53-2.04.78.38,2.09.74,4.08,1.11,6.19.71,0,1.46-.02,2.21,0,2.21.06,4.02,1.57,4.4,3.66.34,1.86-.77,3.94-2.71,4.7-.81.32-1.77.27-2.67.37-.4.04-.81,0-1.21.25h13.64c.31-1.25.6-2.39.88-3.54.17-.7.59-.99,1.3-.91.55.07,1.14.01,1.66.18,1.32.42,1.87-.44,2.38-1.34.09-.16-.02-.49-.12-.71q-1.65-3.31,1.41-5.34c.1-.07.18-.15.28-.22q1.6-1.04,2.9.41c.29.33.58.66.87.99,1.04,1.17,2.39.91,2.93-.55.17-.48.36-.95.53-1.44.5-1.42.76-1.58,2.14-1.27.93.21,1.85.5,2.78.63,1.18.17,1.53.82,1.32,1.91-.07.35-.1.71-.16,1.06-.17.98-.08,1.86,1.06,2.16.47.13,1.07.26,1.47.09,3.01-1.32,3-1.34,4.78,1.35.07.1.12.2.19.3q1.12,1.72-.4,3.14c-.14.13-.36.18-.54.27.08.12.15.24.23.36,4.75-.87,9.5-1.74,14.25-2.61,1.13-.21,2.26-.39,3.39-.59v27.58c-168,0-336,0-504,0v-30.21ZM252.12,153.45c13.6,0,24.6-11.07,24.29-24.73-.32-14.33-11.77-23.99-24.24-23.96-14.68.04-25.1,12.06-24.42,25.6.67,13.21,11.53,23.16,24.36,23.08ZM424.94,275.47c-8.04-7.59-20.6-11.16-32.65-7.66-9.49,2.76-16.45,8.67-21.16,17.43.44.19.68.31.94.4,4.27,1.51,8.58,2.9,12.79,4.56,1.88.74,3.3,1.02,4.31-1.08.02-.03.05-.06.08-.09,5.7-6.14,15.4-7.37,22.5-2.34,4.36-3.72,8.74-7.44,13.19-11.23ZM74.65,253.3c-.83.07-2.23.12-3.6.33-5.27.82-9.95,2.98-13.99,6.44-1.5,1.29-1.31,3.17.38,4.2,4.91,3.03,9.84,6.02,14.76,9.03.96.59,1.95.67,2.95.17,5.64-2.84,11.29-5.66,16.9-8.55,1.92-.99,2.16-2.88.65-4.42-4.79-4.91-10.7-7.11-18.06-7.2ZM419,303.33c5.73.53,11.34,1.05,17,1.58.83-8.4-.91-15.91-5.39-22.9-4.51,3.84-8.89,7.56-13.26,11.28,1.68,3.18,1.88,6.49,1.65,10.04ZM134.23,259.49c-.75.11-1.67.18-2.56.38-5.12,1.13-9.52,6.13-9.77,11.06-.08,1.56.03,1.79,1.51,1.62,3.11-.35,6.21-.82,9.29-1.36.49-.08,1.06-.7,1.26-1.2,1.1-2.76,2.1-5.55,3.12-8.34.44-1.21-.02-1.94-1.27-2.07-.48-.05-.96-.06-1.59-.1ZM47.99,278.86c5.99-.92,11.83-1.81,17.85-2.73-3.83-2.34-7.52-4.6-11.21-6.85-.3-.19-.61-.38-.93-.53-1.43-.68-3.22-.16-3.88,1.3-1.25,2.78-1.85,5.71-1.84,8.82ZM410.29,301.73c.52-4.29-2.37-8.35-6.42-9.24-4.39-.97-8.72,1.38-10.02,5.5,5.48,1.25,10.95,2.49,16.43,3.74ZM147.62,271.77c-.33-4.06-2.02-7.24-5.13-9.67-1.23-.96-2.06-.71-2.62.77-1.03,2.7-2.04,5.4-3.04,8.1-.14.38-.19.8-.31,1.37,3.8-.2,7.4-.38,11.1-.57ZM98.59,273.37c.11-4.01-2.54-4.68-4.91-3.23-1.59.98-3.33,1.71-5,2.55-.92.46-1.83.93-3.01,1.53,4.51-.3,8.69-.58,12.92-.86ZM477.71,303.67c-.58-1.63-2.95-2.33-4.89-2.07-1.51.2-3.06,1.56-3.37,2.86,2.73-.26,5.45-.52,8.26-.78Z"/>
  <path class="cls-1" d="M266.18,130.67c-1.37,0-2.73,0-4.1,0-2.95.02-5.9.04-8.85.09-.33,0-.71.1-.98.27-.9.59-2.28.52-2.93-.2-.54-.6-.4-2.06.25-2.82.14-.17.27-.39.3-.6.64-5.39,1.27-10.78,1.89-16.17.08-.72.07-1.45.11-2.17.13,0,.26-.01.39-.02.06.33.17.67.17,1-.05,5.79-.1,11.57-.18,17.36-.01.77.23,1.02.99,1.12,4.24.51,8.46,1.08,12.69,1.64.1.01.19.11.28.17,0,.11-.01.22-.02.34Z"/>
</svg>