<?xml version="1.0" encoding="UTF-8"?>
<svg id="Layer_1" data-name="Layer 1" xmlns="http://www.w3.org/2000/svg" viewBox="0 0 504 287.04">
  <defs>
    <style>
      .cls-1 {
        fill: #654713;
      }

      .cls-1, .cls-2, .cls-3 {
        stroke-width: 0px;
      }

      .cls-2 {
        fill: #644510;
      }

      .cls-3 {
        fill: #64450f;
      }
    </style>
  </defs>
  <path class="cls-3" d="M0,185.84c6.74-.37,13.47-1.04,20.21-1.04,6.41,0,12.83.72,19.24,1.11.27.02.56-.09.83-.14-.08-.28-.15-.57-.24-.85-.02-.07-.1-.12-.14-.19-.41-.7-1.32-1.74-1.13-2.03.76-1.13,1.86-2.04,2.88-2.99.1-.09.51.06.73.19.37.23.7.52,1.05.79,1.4,1.11,2.29.78,2.58-.95.38-2.28.38-2.27,2.59-2.29,3.12-.03,2.24-.02,2.72,2.51.14.72.36,1.14.99,1.23.4.06.91-.05,1.23-.28,2.08-1.48,2.06-1.5,3.81.25,1.6,1.6,1.61,1.61.25,3.35-.39.5-.79.86-.42,1.64.33.7.73.86,1.44.92,1.95.17,1.94.21,2.2,3.2,8.08,2.03,16.17,4.31,24.38,6.04,6.33,1.34,12.79,2.09,19.22,2.92,6.12.79,12.28,1.3,18.42,2,7.2.82,14.4,1.71,21.59,2.59,7.11.87,14.22,1.81,21.34,2.61,5.82.66,11.66,1.19,17.49,1.74,10.55,1.01,21.14,1.34,31.73,1.08,5.99-.15,11.98-.39,17.97-.65,22.82-1,44.44-6.68,65.01-16.58,9.51-4.58,19.09-9.01,29.06-12.53,1.49-.53,3.01-1,4.48-1.57.26-.1.58-.61.53-.88-.44-2.78-.46-2.78,2.07-4.05,1.51-.76,1.94-2.74.95-4.07-2-2.68-2.03-1.68-.12-4.57.76-1.14,1.44-1.45,2.71-.86,1.11.52,2.25.97,3.48-.11.67-.59,1.04-1.11,1.1-1.94q.22-2.81,2.96-3.18c1.89-.25,2.04-.31,2.75,1.57.59,1.57,1.73,2.04,3.13,2.19.42.05.93-.33,1.32-.62,2.8-2.06,1.72-1.99,4.59-.19,1.21.76,1.6,1.52.88,2.79-.15.27-.18.6-.28.9-.61,1.88.49,3.52,2.45,3.67.04,0,.08,0,.12,0q2.46.15,2.85,2.64c12.95-1.48,25.93-1.56,39.14-.57-.96-1.1-1.81-2.09-2.66-3.07-1.24-1.44-1.26-2.09-.08-3.53q2.25-2.74,5.23-.88c1.08.67,2.16,1.36,3.25,2.01.84.5,1.63.44,2.42-.2,2.47-2.03,2.48-2.02,1.33-5.07-.45-1.19-.91-2.36-1.33-3.56-.43-1.23-.16-1.94.94-2.62q3.31-2.05,5.79.95c.76.92,1.51,1.86,2.27,2.79.66.8,1.41,1.01,2.43.62,2.94-1.12,2.95-1.09,2.89-4.26-.02-1.28-.05-2.56-.04-3.84,0-1.27.64-2,1.87-2.23.08-.01.16,0,.24-.02,3.79-.7,3.71-.46,4.84,3,.38,1.17.79,2.33,1.2,3.48.28.79.83,1.19,1.7,1.24,3.44.19,3.44.2,4.56-3.07.4-1.16.78-2.33,1.2-3.48.44-1.2,1.09-1.58,2.39-1.42,3.92.46,4,.57,3.89,4.48-.03,1.16-.06,2.32-.07,3.48-.01.98.41,1.63,1.35,2.02,3.11,1.29,3.11,1.31,5.21-1.36.74-.94,1.48-1.88,2.24-2.81.94-1.16,1.67-1.29,3.01-.54,3.34,1.86,3.33,1.97,1.93,5.34-.44,1.06-.83,2.14-1.23,3.22-.11.3-.26.61-.25.91.01,1.65,1.48,2.19,2.51,2.95.44.33,1.49.24,2.06-.05,1.6-.8,3.09-1.81,4.63-2.72,1.29-.76,1.92-.64,2.91.49,2.49,2.82,2.48,2.9.04,5.72-.79.91-1.57,1.81-2.33,2.73-.2.24-.39.51-.49.8-.57,1.68,1.72,4.45,3.46,4.16,1.56-.26,3.12-.57,4.68-.89,1.87-.39,2.52-.04,3.17,1.75,1.18,3.24,1.18,3.25-1.8,4.91-1.15.64-2.28,1.3-3.44,1.92-.87.46-1.13,1.17-1.02,2.09.1.84.26,1.51,1.24,1.89,10.08,3.93,19.77,8.69,29.18,14.02.17.09.36.14.54.21v84.89H0C0,253.31,0,219.57,0,185.84ZM466.56,184.86c-.02-.25,0-.37-.04-.48-5.15-16.69-22.25-26.33-39.05-22.02-2.57.66-3.66,3.06-2.39,5.38,1.1,2.02,2.24,4.03,3.43,6,.23.38.74.7,1.18.82,8.01,2.06,16.06,3.99,24.04,6.15,4.3,1.17,8.49,2.73,12.82,4.15ZM353.06,172.6c-1.13-3.58-4.26-5.25-7.45-4.1-2.75,1-4.45,4.07-3.5,6.4,3.62-.76,7.25-1.52,10.95-2.3ZM419.44,172.72c-.74-1.59-1.46-2.92-3.24-3.2-1.86-.28-3.07.67-4.14,2.13,2.44.35,4.78.69,7.38,1.06ZM52.28,188.08c-1.4-2.6-4.57-3.17-6.2-1.19,2.04.39,4.04.77,6.2,1.19Z"/>
  <path class="cls-1" d="M333.84,0c1.29.32,2.6.56,3.86.97,5.1,1.64,8.45,5.05,9.63,10.28.65,2.87.19,5.77-.88,8.55-1.91,4.96-4.73,9.43-7.41,13.98-.44.75-.82,1.57-1.37,2.23-1.7,2.05-2.01,4.41-1.78,6.94.01.16-.07.39,0,.47,1.54,1.5.6,3.39.78,5.09.13,1.22,0,2.47.03,3.71.02.92-.39,1.28-1.3,1.27-2.72-.03-5.44-.03-8.15,0-.82,0-1.17-.29-1.17-1.11.01-2.52,0-5.03,0-7.55,0-.2-.03-.46.08-.58,1.39-1.5.43-3.32.67-4.98.05-.33-.26-.72-.46-1.06-2.72-4.58-5.41-9.17-8.19-13.71-2.59-4.23-3.62-8.79-2.46-13.6,1.49-6.23,5.88-9.47,11.99-10.65.21-.04.4-.16.59-.24,1.84,0,3.68,0,5.52,0ZM339.72,3.19c-.1-.02-.19-.04-.29-.05.05.08.1.15.15.23.14.11.29.22.43.33.04-.05.08-.1.12-.15-.14-.12-.27-.24-.41-.36ZM329.24,1.4c-1.97.91-3.33,2.45-4.25,4.35-2.19,4.52-2.07,9.3-1.07,14.02.83,3.9,2.16,7.69,3.18,11.55.32,1.22.93,1.52,1.83,1.2-.4-6.08-.91-12.07-1.15-18.07-.17-4.37-.17-8.77,1.56-12.93.04-.08.07-.16.11-.25-.07.04-.15.09-.22.13ZM333.42,1.2c.45,1.61,1.08,3.2,1.34,4.84,1.03,6.49.37,12.97-.35,19.44-.26,2.32-.53,4.65-.81,7.02,1.07.21,1.8.16,2.03-1.13.19-1.08.66-2.11.97-3.17,1.48-5.04,3.05-10.06,2.75-15.41-.17-3.04-.72-6-2.38-8.64-.89-1.41-2.03-2.5-3.55-2.95ZM337.65,32.5c.1.05.2.11.31.16.57-.88,1.17-1.75,1.71-2.65,2.86-4.82,5.33-9.77,5.54-15.54.12-3.21-.62-6.16-2.68-8.69-.63-.77-1.4-1.42-2.21-2.23-.08.35-.13.43-.11.49.08.18.16.36.27.53,1.59,2.31,2.19,4.9,2.24,7.67.1,5.39-1.47,10.44-3.21,15.44-.57,1.63-1.24,3.21-1.86,4.82ZM323.38,3.16c-.25,0-.34-.03-.39,0-.17.11-.33.23-.48.35-4.05,3.29-5.01,7.7-4.4,12.59.73,5.88,3.4,11.03,6.37,16.04.1.17.3.29.45.43-.22-1.04-.6-1.98-1.03-2.9-2.1-4.56-4.14-9.12-4.32-14.26-.14-3.91.48-7.61,2.77-10.9.3-.44.64-.85,1.03-1.36ZM327.74,43.59h7.25v-4.45h-7.25v4.45Z"/>
  <path class="cls-2" d="M47.75,39.52c-.6,1.19-1.19,2.31-1.72,3.46-.39.85-.96,1.29-1.95,1.26-2.2-.05-4.4,0-6.6-.02-1.7-.02-2.25-.94-1.47-2.42,1.23-2.33,2.48-4.64,3.77-7.04-1.39-1.61-2.79-3.25-2.79-5.6,0-2.31,1.27-3.96,2.81-5.6-1.2-2.27-2.41-4.55-3.63-6.82-.97-1.81-.44-2.77,1.57-2.78,2.04,0,4.08.04,6.12-.02,1.07-.03,1.73.42,2.17,1.35.54,1.15,1.12,2.28,1.67,3.4,2.47-.76,4.85-1.56,7.26-2.21,5.23-1.41,10.58-2.14,15.96-2.51,11-.75,21.97-.4,32.87,1.43,3.56.59,7,1.63,10.18,3.4,2.62,1.46,4.72,3.46,5.68,6.38.3.92.31,1.95.34,2.94.1,2.6.17,5.18-1.56,7.44-1.94,2.53-4.47,4.18-7.39,5.31-4.67,1.8-9.56,2.52-14.5,2.96-.75.07-1.11.31-1.36,1.02-.72,2.07-1.52,4.12-2.31,6.16-.67,1.73-1.39,2.21-3.24,2.21-5.44,0-10.88,0-16.31,0-1.75,0-2.53-.49-3.17-2.15-.82-2.12-1.57-4.27-2.41-6.38-.14-.34-.61-.74-.96-.78-6.88-.74-11.77-1.85-19.02-4.4ZM77.08,45.85c-1.74,0-1.98.19-1.98,1.58,0,1.36.26,1.57,1.87,1.58,1.66,0,1.9-.19,1.91-1.53.01-1.41-.22-1.63-1.8-1.63ZM85.94,49.01c1.7,0,1.9-.18,1.88-1.66-.01-1.36-.22-1.51-2.04-1.5-1.48,0-1.73.24-1.72,1.6,0,1.36.26,1.57,1.88,1.57Z"/>
</svg>